<?xml version="1.0" encoding="UTF-8" standalone="no"?>
<!-- Created with Inkscape (http://www.inkscape.org/) -->

<svg
   xmlns:dc="http://purl.org/dc/elements/1.1/"
   xmlns:cc="http://creativecommons.org/ns#"
   xmlns:rdf="http://www.w3.org/1999/02/22-rdf-syntax-ns#"
   xmlns:svg="http://www.w3.org/2000/svg"
   xmlns="http://www.w3.org/2000/svg"
   xmlns:sodipodi="http://sodipodi.sourceforge.net/DTD/sodipodi-0.dtd"
   xmlns:inkscape="http://www.inkscape.org/namespaces/inkscape"
   width="14.111111mm"
   height="14.111111mm"
   viewBox="0 0 49.999997 49.999997"
   id="svg2"
   version="1.1"
   inkscape:version="0.91 r13725"
   sodipodi:docname="arrow-circle-down.svg">
  <defs
     id="defs4" />
  <sodipodi:namedview
     id="base"
     pagecolor="#ffffff"
     bordercolor="#666666"
     borderopacity="1.0"
     inkscape:pageopacity="0.0"
     inkscape:pageshadow="2"
     inkscape:zoom="1"
     inkscape:cx="28"
     inkscape:cy="26.5"
     inkscape:document-units="px"
     inkscape:current-layer="layer1"
     showgrid="false"
     fit-margin-top="0"
     fit-margin-left="0"
     fit-margin-right="0"
     fit-margin-bottom="0"
     inkscape:window-width="1920"
     inkscape:window-height="1017"
     inkscape:window-x="-8"
     inkscape:window-y="-8"
     inkscape:window-maximized="1" />
  <metadata
     id="metadata7">
    <rdf:RDF>
      <cc:Work
         rdf:about="">
        <dc:format>image/svg+xml</dc:format>
        <dc:type
           rdf:resource="http://purl.org/dc/dcmitype/StillImage" />
        <dc:title></dc:title>
      </cc:Work>
    </rdf:RDF>
  </metadata>
  <g
     inkscape:label="Layer 1"
     inkscape:groupmode="layer"
     id="layer1"
     transform="translate(656.57143,-1113.219)">
    <path
       id="path4138"
       d="m -614.77455,1138.2519 q 0,-0.8789 -0.58594,-1.4648 l -2.96224,-2.9623 q -0.58594,-0.5859 -1.46485,-0.5859 -0.8789,0 -1.46484,0.5859 l -6.15234,6.1524 0,-16.3412 q 0,-0.8463 -0.61849,-1.4648 -0.61849,-0.6185 -1.46485,-0.6185 l -4.16666,0 q -0.84636,0 -1.46485,0.6185 -0.61849,0.6185 -0.61849,1.4648 l 0,16.3412 -6.15234,-6.1524 q -0.61849,-0.6185 -1.46484,-0.6185 -0.84636,0 -1.46485,0.6185 l -2.96224,2.9623 q -0.58593,0.5859 -0.58593,1.4648 0,0.8789 0.58593,1.4649 l 11.78386,11.7838 2.96224,2.9622 q 0.58593,0.586 1.46484,0.586 0.87891,0 1.46484,-0.586 l 2.96224,-2.9622 11.78386,-11.7838 q 0.58594,-0.586 0.58594,-1.4649 z m 8.20312,-0.033 q 0,6.8033 -3.35286,12.5488 -3.35287,5.7454 -9.09831,9.0983 -5.74544,3.3529 -12.54883,3.3529 -6.80339,0 -12.54883,-3.3529 -5.74544,-3.3529 -9.09831,-9.0983 -3.35286,-5.7455 -3.35286,-12.5488 0,-6.8034 3.35286,-12.5489 3.35287,-5.7454 9.09831,-9.0983 5.74544,-3.3528 12.54883,-3.3528 6.80339,0 12.54883,3.3528 5.74544,3.3529 9.09831,9.0983 3.35286,5.7455 3.35286,12.5489 z"
       inkscape:connector-curvature="0"
       style="fill:#2f75df;fill-opacity:0.94117647" />
  </g>
</svg>
